<svg width="377" height="226" viewBox="0 0 377 226" fill="none" xmlns="http://www.w3.org/2000/svg">
<path d="M188.5 0C138.108 0 91.8749 11.6481 57.8067 31.1278C24.0652 50.4087 0 78.9135 0 113C0 147.086 24.0652 175.591 57.8067 194.872C91.8749 214.352 138.108 226 188.5 226C238.892 226 285.125 214.352 319.193 194.872C352.935 175.591 377 147.086 377 113C377 78.9135 352.935 50.4087 319.193 31.1278C285.125 11.6481 238.892 0 188.5 0ZM25.1333 113C25.1333 91.5437 40.4521 69.7641 70.3733 52.6463C100.006 35.7274 141.739 24.8625 188.5 24.8625C235.273 24.8625 277.007 35.7274 306.627 52.6463C336.548 69.7641 351.867 91.5561 351.867 113C351.867 117.053 351.314 121.118 350.233 125.158C338.596 83.1153 270.611 50.8438 188.5 50.8438C106.389 50.8438 38.4037 83.1153 26.767 125.158C25.6896 121.193 25.1403 117.106 25.1333 113Z" fill="#101010"/>
</svg>
