<svg width="987" height="153" viewBox="0 0 987 153" fill="none" xmlns="http://www.w3.org/2000/svg">
<path d="M0.2 149V8.99999H53.4C76.6 8.99999 95.6 23 95.6 47.2C95.6 58.4 90.6 68.6 83.6 73.6C97.8 79.2 107 92.2 107 107.6C107 133 88 149 62.4 149H0.2ZM26.2 66.6H49C61.6 66.6 69 60.2 69 49.6C69 39 61.6 32.6 48.8 32.6H26.2V66.6ZM26.2 125.4H59.6C72.6 125.4 80.4 118.8 80.4 107.6C80.4 96.6 72.6 90.2 59.6 90.2H26.2V125.4ZM214.873 110.2H143.473C146.473 121.6 154.873 129.2 166.873 129.2C177.073 129.2 185.473 125 191.073 117L212.673 127.4C204.073 143.4 186.873 152 166.873 152C136.873 152 117.273 130.2 117.273 101.2C117.273 72.4 136.873 50.6 166.873 50.6C196.673 50.6 215.473 72.4 215.473 101C215.473 104 215.073 108 214.873 110.2ZM144.073 90.2H189.073C186.073 79.2 178.673 73 166.873 73C155.673 73 147.273 79.8 144.073 90.2ZM264.416 22V53.6H294.016V76.8H264.416V149H239.216V76.8H218.416L254.016 22H264.416ZM339.127 22V53.6H368.727V76.8H339.127V149H313.927V76.8H293.127L328.727 22H339.127ZM465.959 110.2H394.559C397.559 121.6 405.959 129.2 417.959 129.2C428.159 129.2 436.559 125 442.159 117L463.759 127.4C455.159 143.4 437.959 152 417.959 152C387.959 152 368.359 130.2 368.359 101.2C368.359 72.4 387.959 50.6 417.959 50.6C447.759 50.6 466.559 72.4 466.559 101C466.559 104 466.159 108 465.959 110.2ZM395.159 90.2H440.159C437.159 79.2 429.759 73 417.959 73C406.759 73 398.359 79.8 395.159 90.2ZM481.483 149V53.6H506.683V63.2C510.283 55.8 516.883 52 526.683 52C545.083 52 554.283 65.4 553.483 85.4H528.683C528.883 78.2 524.683 73.6 517.683 73.6C510.683 73.6 506.683 78.8 506.683 88.4V149H481.483ZM667.05 94V72.2H730.65V149H711.05L707.25 130.2C696.983 144.867 681.517 152.2 660.85 152.2C640.317 152.2 623.85 145.4 611.45 131.8C599.05 118.2 592.85 100.2 592.85 77.8C592.85 55.4 599.183 37.3333 611.85 23.6C624.517 10.1333 641.65 3.39999 663.25 3.39999C681.117 3.39999 695.983 7.93333 707.85 17C719.583 26.0667 726.65 38.4 729.05 54H701.25C699.25 45.6 694.85 39 688.05 34.2C681.383 29.4 673.183 27 663.45 27C650.383 27 640.05 31.5333 632.45 40.6C624.85 49.6667 621.05 62.0667 621.05 77.8C621.05 93.5333 624.917 105.933 632.65 115C640.383 124.067 650.983 128.6 664.45 128.6C675.117 128.6 684.25 125.4 691.85 119C699.45 112.6 703.583 104.267 704.25 94H667.05ZM742.98 101C742.98 72.8 763.58 50.6 794.78 50.6C825.78 50.6 846.78 72.8 846.78 101C846.78 129.6 825.78 151.8 794.78 151.8C763.58 151.8 742.98 129.6 742.98 101ZM821.38 101C821.38 85.2 811.38 73.8 794.78 73.8C778.58 73.8 768.58 85.2 768.58 101C768.58 117 778.58 128.6 794.78 128.6C811.38 128.6 821.38 117.2 821.38 101ZM862.163 149V3H887.363V149H862.163ZM941.553 34.4V53.6H966.953V76.8H941.553V149H916.353V76.8H900.353V53.6H916.353V35.8C916.353 14.6 931.153 -1.28746e-05 951.753 -1.28746e-05C973.153 -1.28746e-05 986.753 13.4 986.553 34.4H962.153C962.153 27.8 958.153 23.2 951.753 23.2C945.353 23.2 941.553 27.8 941.553 34.4Z" fill="black"/>
</svg>
